<svg width="24" height="24" viewBox="0 0 24 24" fill="none" xmlns="http://www.w3.org/2000/svg">
<path d="M11.9905 8.77927C11.9935 8.77006 12.0065 8.77006 12.0095 8.77927L13.2326 12.5435C13.2339 12.5476 13.2378 12.5504 13.2421 12.5504H17.2C17.2097 12.5504 17.2137 12.5628 17.2059 12.5685L14.0039 14.8949C14.0004 14.8975 13.9989 14.902 14.0002 14.9061L15.2233 18.6703C15.2263 18.6795 15.2158 18.6872 15.2079 18.6815L12.0059 16.3551C12.0024 16.3525 11.9976 16.3525 11.9941 16.3551L8.79208 18.6815C8.78424 18.6872 8.7737 18.6795 8.77669 18.6703L9.99976 14.9061C10.0011 14.902 9.99963 14.8975 9.99613 14.8949L6.79409 12.5685C6.78625 12.5628 6.79028 12.5504 6.79997 12.5504H10.7579C10.7622 12.5504 10.7661 12.5476 10.7674 12.5435L11.9905 8.77927Z" fill="#E4E6F1" stroke="#160042" stroke-width="1.5"/>
<path d="M6.75 5.25L6.75 9.5" stroke="#160042" stroke-width="1.5" stroke-linecap="round" stroke-linejoin="round"/>
<path d="M17.25 5.25L17.25 9.5" stroke="#160042" stroke-width="1.5" stroke-linecap="round" stroke-linejoin="round"/>
<path d="M12 5.25L12 5.75" stroke="#160042" stroke-width="1.5" stroke-linecap="round" stroke-linejoin="round"/>
</svg>
