<?xml version="1.0" encoding="UTF-8" standalone="no"?><!DOCTYPE svg PUBLIC "-//W3C//DTD SVG 1.1//EN" "http://www.w3.org/Graphics/SVG/1.1/DTD/svg11.dtd"><svg width="100%" height="100%" viewBox="0 0 40 40" version="1.1" xmlns="http://www.w3.org/2000/svg" xmlns:xlink="http://www.w3.org/1999/xlink" xml:space="preserve" xmlns:serif="http://www.serif.com/" style="fill-rule:evenodd;clip-rule:evenodd;stroke-linecap:round;stroke-linejoin:round;"><path d="M1.573,35.638l0,-19.326c0,-0.945 0.437,-1.837 1.183,-2.418l15.363,-11.949c1.107,-0.861 2.655,-0.861 3.762,-0l15.363,11.949c0.747,0.581 1.183,1.473 1.183,2.418l-0,19.326c-0,1.691 -1.371,3.063 -3.063,3.063l-8.403,-0c-0.452,-0 -0.819,-0.367 -0.819,-0.819l0,-7.648c0,-0.718 -0.117,-1.445 -0.497,-2.054c-0.498,-0.798 -1.162,-1.485 -1.951,-2.011c-1.094,-0.729 -2.379,-1.118 -3.694,-1.118c-1.315,0 -2.6,0.389 -3.694,1.118c-0.789,0.526 -1.453,1.213 -1.951,2.011c-0.38,0.609 -0.497,1.336 -0.497,2.054l-0,7.648c-0,0.452 -0.367,0.819 -0.819,0.819l-8.403,-0c-1.692,-0 -3.063,-1.372 -3.063,-3.063Z" style="fill:#e4e6f1;fill-rule:nonzero;stroke:#160042;stroke-width:2.46px;"/></svg>