<svg width="25" height="25" viewBox="0 0 25 25" fill="none" xmlns="http://www.w3.org/2000/svg">
<circle cx="12.5" cy="14.25" r="5" fill="#E4E6F1" stroke="#160042" stroke-width="1.5"/>
<path d="M12.3098 11.8354C12.3697 11.6511 12.6303 11.6511 12.6902 11.8354L13.1286 13.1848C13.1554 13.2672 13.2322 13.3229 13.3189 13.3229H14.7376C14.9314 13.3229 15.0119 13.5709 14.8552 13.6848L13.7074 14.5187C13.6373 14.5696 13.6079 14.6599 13.6347 14.7423L14.0731 16.0916C14.133 16.2759 13.9221 16.4291 13.7654 16.3152L12.6176 15.4813C12.5475 15.4304 12.4525 15.4304 12.3824 15.4813L11.2346 16.3152C11.0779 16.4291 10.867 16.2759 10.9269 16.0916L11.3653 14.7423C11.3921 14.6599 11.3627 14.5696 11.2926 14.5187L10.1448 13.6848C9.98807 13.5709 10.0686 13.3229 10.2624 13.3229H11.6811C11.7678 13.3229 11.8446 13.2672 11.8714 13.1848L12.3098 11.8354Z" fill="#160042"/>
<path d="M9.25 5.25V10.25C10.1667 9.5 12.75 8.45 15.75 10.25V5.25L12.5 6.5L9.25 5.25Z" fill="#E4E6F1" stroke="#160042" stroke-width="1.5" stroke-linecap="round" stroke-linejoin="round"/>
</svg>
