<svg width="24" height="25" viewBox="0 0 24 25" fill="none" xmlns="http://www.w3.org/2000/svg">
<path d="M5.25 17.38V11.4146C5.25 10.8375 5.51642 10.2928 5.97193 9.9385L10.8519 6.14294C11.5272 5.61773 12.4728 5.61773 13.1481 6.14294L18.0281 9.9385C18.4836 10.2928 18.75 10.8375 18.75 11.4146V17.38C18.75 18.4128 17.9128 19.25 16.88 19.25H14.75C14.4739 19.25 14.25 19.0261 14.25 18.75V16.1487C14.25 15.8855 14.207 15.6193 14.0677 15.396C13.8854 15.1039 13.6423 14.8523 13.353 14.6595C12.9525 14.3925 12.4817 14.25 12 14.25C11.5183 14.25 11.0475 14.3925 10.647 14.6595C10.3577 14.8523 10.1146 15.1039 9.93234 15.396C9.79305 15.6193 9.75 15.8855 9.75 16.1487V18.75C9.75 19.0261 9.52614 19.25 9.25 19.25H7.12C6.08723 19.25 5.25 18.4128 5.25 17.38Z" fill="#E4E6F1" stroke="#160042" stroke-width="1.5" stroke-linecap="round" stroke-linejoin="round"/>
</svg>
