<?xml version="1.0" encoding="UTF-8" standalone="no"?><!DOCTYPE svg PUBLIC "-//W3C//DTD SVG 1.1//EN" "http://www.w3.org/Graphics/SVG/1.1/DTD/svg11.dtd"><svg width="100%" height="100%" viewBox="0 0 24 24" version="1.1" xmlns="http://www.w3.org/2000/svg" xmlns:xlink="http://www.w3.org/1999/xlink" xml:space="preserve" xmlns:serif="http://www.serif.com/" style="fill-rule:evenodd;clip-rule:evenodd;"><g><circle cx="12" cy="15.083" r="7.706" style="fill:#e4e6f1;stroke:#160042;stroke-width:2.31px;"/><path d="M11.707,11.361c0.092,-0.284 0.494,-0.284 0.586,-0l0.676,2.08c0.041,0.127 0.16,0.213 0.293,0.213l2.187,-0c0.298,-0 0.423,0.382 0.181,0.557l-1.769,1.286c-0.108,0.078 -0.153,0.217 -0.112,0.344l0.676,2.08c0.092,0.284 -0.233,0.52 -0.475,0.345l-1.769,-1.286c-0.108,-0.078 -0.254,-0.078 -0.362,0l-1.769,1.286c-0.242,0.175 -0.567,-0.061 -0.475,-0.345l0.676,-2.08c0.041,-0.127 -0.004,-0.266 -0.112,-0.344l-1.769,-1.286c-0.241,-0.175 -0.117,-0.557 0.181,-0.557l2.187,-0c0.133,-0 0.252,-0.086 0.293,-0.213l0.676,-2.08Z" style="fill:#160042;fill-rule:nonzero;"/><path d="M6.991,1.211l-0,7.706c1.413,-1.155 5.394,-2.774 10.018,0l0,-7.706l-5.009,1.927l-5.009,-1.927Z" style="fill:#e4e6f1;fill-rule:nonzero;stroke:#160042;stroke-width:2.31px;stroke-linecap:round;stroke-linejoin:round;"/></g></svg>