<svg xmlns="http://www.w3.org/2000/svg" width="36" height="37" fill="none" style=""><rect id="backgroundrect" width="100%" height="100%" x="0" y="0" fill="none" stroke="none" class="" style=""/>

<defs>
<filter id="filter0_dd_52_540" x="0.34825098514556885" y="0.20690500736236572" width="464.3039855957031" height="464.3030090332031" filterUnits="userSpaceOnUse" color-interpolation-filters="sRGB">
<feFlood flood-opacity="0" result="BackgroundImageFix"/>
<feColorMatrix in="SourceAlpha" type="matrix" values="0 0 0 0 0 0 0 0 0 0 0 0 0 0 0 0 0 0 127 0" result="hardAlpha"/>
<feOffset dy="17.9224"/>
<feGaussianBlur stdDeviation="107.534"/>
<feComposite in2="hardAlpha" operator="out"/>
<feColorMatrix type="matrix" values="0 0 0 0 0.649495 0 0 0 0 0.920833 0 0 0 0 0.0728993 0 0 0 1 0"/>
<feBlend mode="normal" in2="BackgroundImageFix" result="effect1_dropShadow_52_540"/>
<feColorMatrix in="SourceAlpha" type="matrix" values="0 0 0 0 0 0 0 0 0 0 0 0 0 0 0 0 0 0 127 0" result="hardAlpha"/>
<feOffset dy="-2"/>
<feGaussianBlur stdDeviation="22.5"/>
<feComposite in2="hardAlpha" operator="out"/>
<feColorMatrix type="matrix" values="0 0 0 0 0.274284 0 0 0 0 0.6375 0 0 0 0 0.215156 0 0 0 1 0"/>
<feBlend mode="normal" in2="effect1_dropShadow_52_540" result="effect2_dropShadow_52_540"/>
<feBlend mode="normal" in="SourceGraphic" in2="effect2_dropShadow_52_540" result="shape"/>
</filter>
</defs>
<g class="currentLayer" style=""><title>Layer 1</title><g filter="url(#filter0_dd_52_540)" id="svg_1" class="">
<path d="M18.326766967773438,2.077403381347665 C8.89676696777343,2.077403381347665 1.243766967773439,9.730403381347656 1.243766967773439,19.160403381347663 C1.243766967773439,28.59040338134767 8.89676696777343,36.24440338134767 18.326766967773438,36.24440338134767 C27.756766967773444,36.24440338134767 35.409766967773436,28.59040338134767 35.409766967773436,19.160403381347663 C35.409766967773436,9.730403381347656 27.756766967773444,2.077403381347665 18.326766967773438,2.077403381347665 zM14.909766967773436,26.84840338134765 V11.473403381347651 L25.159766967773436,19.160403381347663 L14.909766967773436,26.84840338134765 z" fill="#07406F" id="svg_2"/>
</g><path fill="" fill-opacity="1" stroke="none" stroke-opacity="1" stroke-width="1" stroke-dasharray="none" stroke-linejoin="miter" stroke-linecap="butt" stroke-dashoffset="" fill-rule="nonzero" opacity="1" marker-start="" marker-mid="" marker-end="" d="M0,9.5 C0,5.908839779005525 3.580110497237569,3 8,3 C12.41988950276243,3 16,5.908839779005525 16,9.5 C16,13.091160220994475 12.41988950276243,16 8,16 C3.580110497237569,16 0,13.091160220994475 0,9.5 z" id="svg_5" class=""/><path fill="" fill-opacity="1" stroke="none" stroke-opacity="1" stroke-width="1" stroke-dasharray="none" stroke-linejoin="miter" stroke-linecap="butt" stroke-dashoffset="" fill-rule="nonzero" opacity="1" marker-start="" marker-mid="" marker-end="" d="M4,12.5 C4,7.251381215469613 7.803867403314917,3 12.5,3 C17.196132596685082,3 21,7.251381215469613 21,12.5 C21,17.748618784530386 17.196132596685082,22 12.5,22 C7.803867403314917,22 4,17.748618784530386 4,12.5 z" id="svg_7" class=""/><path fill="" fill-opacity="1" stroke="none" stroke-opacity="1" stroke-width="1" stroke-dasharray="none" stroke-linejoin="miter" stroke-linecap="butt" stroke-dashoffset="" fill-rule="nonzero" opacity="1" marker-start="" marker-mid="" marker-end="" d="M54.685041427612305,48.37401580810547 C54.685041427612305,44.78285558711099 57.37012430054048,41.87401580810547 60.685041427612305,41.87401580810547 C63.99995855468413,41.87401580810547 66.6850414276123,44.78285558711099 66.6850414276123,48.37401580810547 C66.6850414276123,51.96517602909995 63.99995855468413,54.87401580810547 60.685041427612305,54.87401580810547 C57.37012430054048,54.87401580810547 54.685041427612305,51.96517602909995 54.685041427612305,48.37401580810547 z" id="svg_9" class=""/><rect fill="" stroke-dashoffset="" fill-rule="nonzero" id="svg_4" x="68" y="12" width="36" height="30" style="color: rgb(0, 0, 0);" class=""/></g></svg>