<svg width="112" height="42" viewBox="0 0 112 42" fill="none" xmlns="http://www.w3.org/2000/svg">
<g clip-path="url(#clip0_53_723)">
<path d="M55.7842 13.3103L61.1102 12.9761C61.2264 13.8418 61.4614 14.5009 61.8152 14.9533C62.3933 15.6867 63.2171 16.0534 64.2868 16.0534C65.085 16.0534 65.7009 15.8663 66.1344 15.4922C66.3329 15.3369 66.4942 15.1391 66.6064 14.9133C66.7185 14.6876 66.7788 14.4396 66.7827 14.1875C66.7794 13.9459 66.7233 13.7079 66.6183 13.4902C66.5133 13.2726 66.362 13.0805 66.1749 12.9275C65.7697 12.5574 64.8142 12.2069 63.3083 11.876C60.853 11.325 59.1019 10.5916 58.0552 9.67595C57.5459 9.24931 57.1392 8.71344 56.8653 8.10811C56.5914 7.50278 56.4573 6.84354 56.473 6.17931C56.4769 5.24063 56.7589 4.32417 57.2834 3.54568C57.8824 2.66826 58.7285 1.98854 59.7144 1.59275C60.7949 1.11869 62.2805 0.881668 64.1713 0.881668C66.4862 0.881668 68.2514 1.3125 69.4669 2.17417C70.6824 3.03584 71.4057 4.40532 71.6366 6.28262L66.3593 6.59056C66.2242 5.78021 65.9298 5.18731 65.476 4.81185C65.0222 4.43639 64.4009 4.24933 63.6122 4.25068C62.9619 4.25068 62.4716 4.39047 62.1434 4.66598C61.9884 4.78519 61.8631 4.93867 61.7773 5.11441C61.6916 5.29015 61.6477 5.48337 61.6491 5.67892C61.654 5.83066 61.693 5.97936 61.7631 6.11401C61.8333 6.24867 61.9328 6.36583 62.0543 6.45685C62.3176 6.6959 62.9436 6.91875 63.9323 7.12538C66.3795 7.65211 68.1353 8.18559 69.1995 8.72582C70.2638 9.26605 71.0336 9.93526 71.509 10.7334C71.9942 11.5432 72.2446 12.4718 72.2322 13.4157C72.2381 14.5586 71.903 15.6772 71.27 16.6287C70.611 17.6208 69.6737 18.3961 68.5756 18.8572C67.4208 19.3636 65.9662 19.6169 64.2118 19.6169C61.1312 19.6169 58.9973 19.024 57.8101 17.8382C56.6229 16.6524 55.9477 15.1431 55.7842 13.3103ZM1.27022 19.313V1.18757H10.6014C12.3314 1.18757 13.6537 1.33546 14.568 1.63124C15.4686 1.91891 16.2473 2.49934 16.7802 3.28029C17.3603 4.1471 17.6556 5.17323 17.625 6.21577C17.6485 7.12555 17.4245 8.02463 16.9768 8.81698C16.5471 9.55151 15.9387 10.1655 15.2082 10.6018C14.594 10.9406 13.9311 11.1825 13.2431 11.3189C13.7579 11.4705 14.2484 11.695 14.6997 11.9854C15.0351 12.2642 15.3369 12.581 15.5992 12.9295C15.8942 13.2758 16.1554 13.6496 16.3791 14.0457L19.0897 19.313H12.763L9.77278 13.7682C9.39326 13.051 9.05562 12.5851 8.75984 12.3703C8.35679 12.091 7.87664 11.9444 7.38631 11.951H6.88794V19.313H1.27022ZM6.88794 8.52728H9.25415C9.75492 8.48989 10.2513 8.40717 10.7371 8.28013C11.1001 8.21047 11.4239 8.00738 11.6447 7.71086C11.8781 7.41134 12.0025 7.04117 11.9972 6.66146C12.0124 6.40937 11.9702 6.15712 11.8737 5.92374C11.7772 5.69037 11.6289 5.48196 11.4401 5.31426C11.07 5.00093 10.3738 4.84426 9.3514 4.84426H6.88794V8.52728ZM0 34.823L5.326 34.4908C5.44215 35.3565 5.67715 36.0156 6.031 36.468C6.6023 37.2014 7.42817 37.5681 8.50864 37.5681C9.30683 37.5681 9.92269 37.3803 10.3562 37.0049C10.5548 36.8495 10.716 36.6517 10.8282 36.426C10.9404 36.2002 11.0006 35.9523 11.0045 35.7002C11.0009 35.4586 10.9447 35.2207 10.8397 35.0031C10.7348 34.7854 10.5836 34.5933 10.3967 34.4401C9.99157 34.0701 9.03604 33.7203 7.53014 33.3907C5.07479 32.837 3.32377 32.1036 2.27707 31.1906C1.7678 30.7635 1.36115 30.2272 1.08726 29.6216C0.813376 29.016 0.679268 28.3565 0.694872 27.692C0.699356 26.7534 0.981293 25.8371 1.50522 25.0583C2.10422 24.1809 2.95035 23.5012 3.93626 23.1054C5.01672 22.6314 6.50235 22.3943 8.39316 22.3943C10.7081 22.3943 12.4733 22.8252 13.6888 23.6868C14.9043 24.5485 15.6275 25.918 15.8585 27.7953L10.5912 28.1052C10.4562 27.2949 10.1617 26.7013 9.70795 26.3245C9.25415 25.9477 8.63356 25.7627 7.84618 25.7694C7.19655 25.7694 6.70697 25.9045 6.37742 26.1746C6.22241 26.2938 6.09711 26.4473 6.01134 26.623C5.92558 26.7988 5.88169 26.992 5.88311 27.1875C5.88773 27.3396 5.92655 27.4887 5.9967 27.6237C6.06684 27.7588 6.16651 27.8763 6.28829 27.9675C6.55165 28.2065 7.17764 28.4287 8.16626 28.634C10.6135 29.1607 12.3693 29.6942 13.4335 30.2344C14.4978 30.7747 15.2676 31.4439 15.743 32.2421C16.2279 33.0519 16.4783 33.9805 16.4662 34.9243C16.4723 36.0672 16.1373 37.1859 15.5039 38.1373C14.845 39.1294 13.9076 39.9047 12.8095 40.3658C11.6548 40.8722 10.2002 41.1255 8.44583 41.1255C5.36517 41.1255 3.23126 40.5326 2.0441 39.3468C0.856941 38.161 0.175575 36.653 0 34.823ZM33.0216 33.4029L37.9283 34.8858C37.6569 36.1306 37.126 37.3041 36.3704 38.3298C35.6818 39.2361 34.7761 39.9544 33.7367 40.4184C32.686 40.8871 31.3489 41.1214 29.7255 41.1214C27.7564 41.1214 26.1478 40.8358 24.8999 40.2645C23.652 39.6932 22.5715 38.6863 21.6585 37.2439C20.7509 35.8029 20.2978 33.9586 20.2992 31.7113C20.2992 28.7157 21.096 26.4123 22.6897 24.8011C24.2834 23.1898 26.5388 22.3849 29.4561 22.3862C31.7399 22.3862 33.5342 22.8481 34.8388 23.7719C36.1435 24.6957 37.1132 26.1138 37.748 28.0262L32.8048 29.1263C32.6888 28.6951 32.5056 28.2849 32.2619 27.9108C31.9625 27.4951 31.5689 27.1563 31.1132 26.9221C30.641 26.6869 30.1193 26.5681 29.5918 26.5757C28.3236 26.5757 27.3519 27.0862 26.6766 28.1073C26.1634 28.8649 25.9074 30.0541 25.9088 31.6748C25.9088 33.6818 26.214 35.058 26.8245 35.8035C27.4349 36.549 28.2919 36.9211 29.3953 36.9198C30.465 36.9198 31.2753 36.6193 31.8263 36.0183C32.3774 35.4173 32.7758 34.5455 33.0216 33.4029ZM42.2413 22.7002H47.8388V29.0371H53.9569V22.7002H59.5787V40.8175H53.9569V33.494H47.8388V40.8236H42.2413V22.7002ZM63.0632 31.77C63.0632 28.815 63.887 26.5122 65.5347 24.8618C67.1824 23.2114 69.4784 22.3876 72.4227 22.3903C75.4372 22.3903 77.7602 23.2006 79.3916 24.8213C81.0231 26.442 81.8409 28.7089 81.845 31.6221C81.845 33.7412 81.4884 35.478 80.7753 36.8327C80.0814 38.1695 79.0061 39.2701 77.6859 39.995C76.3353 40.7487 74.6565 41.1255 72.6496 41.1255C70.6075 41.1255 68.9193 40.8 67.5849 40.149C66.214 39.4696 65.0795 38.393 64.3293 37.0596C63.4839 35.6523 63.0618 33.8891 63.0632 31.77ZM68.6606 31.7964C68.6606 33.6264 68.9983 34.9405 69.6736 35.7387C70.3489 36.5369 71.274 36.936 72.449 36.936C73.6524 36.936 74.5836 36.545 75.2427 35.763C75.9018 34.981 76.2313 33.5764 76.2313 31.5492C76.2313 29.8434 75.8869 28.5969 75.1981 27.8095C74.5093 27.0221 73.5761 26.6291 72.3984 26.6304C71.8863 26.612 71.3767 26.7096 70.9077 26.9159C70.4386 27.1221 70.0223 27.4318 69.6898 27.8216C69.005 28.632 68.662 29.9569 68.6606 31.7964Z" fill="black"/>
<path d="M79.4707 31.7685C79.4707 28.8134 80.2946 26.5107 81.9423 24.8603C83.59 23.2099 85.8859 22.386 88.8302 22.3887C91.8474 22.3887 94.1711 23.1991 95.8012 24.8198C97.4314 26.4405 98.2464 28.7081 98.2464 31.6226C98.2464 33.7417 97.8906 35.4785 97.1788 36.8332C96.4843 38.1695 95.4092 39.27 94.0894 39.9955C92.7388 40.7491 91.06 41.126 89.053 41.126C87.0096 41.126 85.3214 40.8005 83.9884 40.1495C82.6173 39.4696 81.4823 38.3932 80.7308 37.06C79.8907 35.6514 79.4707 33.8875 79.4707 31.7685ZM85.0702 31.7948C85.0702 33.6249 85.4078 34.939 86.0831 35.7372C86.7584 36.5353 87.6849 36.9351 88.8626 36.9365C90.066 36.9365 90.9972 36.5455 91.6563 35.7635C92.3154 34.9815 92.6449 33.5769 92.6449 31.5497C92.6449 29.8439 92.3012 28.5973 91.6137 27.81C90.9263 27.0226 89.993 26.6295 88.814 26.6309C88.3011 26.6112 87.7903 26.7079 87.3202 26.9139C86.85 27.1198 86.4326 27.4297 86.0993 27.8201C85.4119 28.6304 85.0688 29.9553 85.0702 31.7948Z" fill="black"/>
<path d="M97.6628 22.6987H103.262V36.355H112V40.812H97.6628V22.6987Z" fill="black"/>
</g>
<defs>
<clipPath id="clip0_53_723">
<rect width="112" height="40.2479" fill="white" transform="translate(0 0.876068)"/>
</clipPath>
</defs>
</svg>
